<?xml version="1.0" encoding="iso-8859-1"?>
<!-- Generator: Adobe Illustrator 19.0.0, SVG Export Plug-In . SVG Version: 6.00 Build 0)  -->
<svg version="1.1" id="Capa_1" xmlns="http://www.w3.org/2000/svg" xmlns:xlink="http://www.w3.org/1999/xlink" x="0px" y="0px"
	 viewBox="0 0 512 512" style="enable-background:new 0 0 512 512;" xml:space="preserve">
<g>
	<g>
		<path d="M421,188.789V87.237C438.422,81.024,451,64.53,451,45c0-24.814-20.186-45-45-45c-25.228,0-45,20.577-45,45
			c0,19.53,12.578,36.024,30,42.237v101.552l-63.252,63.252l34.834,69.668l26.836-13.418l-25.166-50.332L406,216.211l41.748,41.748
			l-25.166,50.332l26.836,13.418l34.834-69.668L421,188.789z"/>
	</g>
</g>
<g>
	<g>
		<path d="M142.119,101.514v-0.015c-14.333-28.651-45.782-46.655-81.753-40.063C25.386,68.35,0,99.302,0,135
			c0,40.994,32.924,74.914,75,75C130.536,210,167.047,151.467,142.119,101.514z M90,150H60v-30h30V150z"/>
	</g>
</g>
<g>
	<g>
		<path d="M481,482V360h-60v60h-30v-60h-60v122h-61v-30h-30v-63.749C220.92,407.783,194.392,420,165,420h-0.059
			c-28.896-0.064-55.556-11.797-74.941-31.679V452H60v60c5.557,0,452,0,452,0v-30H481z"/>
	</g>
</g>
<g>
	<g>
		<path d="M232.119,281.499l-39.322-78.635l-72.107,26.371C106.859,235.939,93.107,240,75,240h-0.059
			c-11.953-0.026-23.45-2.245-34.305-5.989l57.244,114.49c12.774,25.547,38.438,41.44,67.12,41.499
			C221.149,390,256.62,330.69,232.119,281.499z"/>
	</g>
</g>
<g>
	<g>
		<path d="M363.772,106.906C344.013,93.386,331,70.695,331,45c0-12.059,3.096-23.469,8.286-33.701L133.834,48.164
			c14.597,9.899,26.843,23.375,35.121,39.917c13.991,28.134,15.007,61.591,1.23,91.232L363.772,106.906z"/>
	</g>
</g>
<g>
</g>
<g>
</g>
<g>
</g>
<g>
</g>
<g>
</g>
<g>
</g>
<g>
</g>
<g>
</g>
<g>
</g>
<g>
</g>
<g>
</g>
<g>
</g>
<g>
</g>
<g>
</g>
<g>
</g>
</svg>
